P2
75 75
255
8
8
8
8
8
8
8
9
15
126
177
187
179
183
183
188
183
176
177
196
182
185
187
187
183
175
189
182
179
170
188
184
187
183
152
130
133
136
141
153
156
154
156
148
158
155
151
160
154
165
146
143
133
133
143
151
152
152
147
129
143
137
105
87
88
91
96
113
92
95
93
93
89
88
82
8
8
8
8
8
8
8
5
64
190
183
196
185
180
183
184
182
180
181
170
183
184
188
196
204
174
169
162
182
176
182
178
190
176
118
124
125
141
147
143
150
153
159
160
145
153
163
159
155
160
152
145
143
137
139
152
152
148
145
149
153
129
99
81
78
97
89
101
95
93
93
97
99
94
82
8
8
8
8
8
9
13
16
140
180
185
182
171
175
177
176
185
184
187
180
184
179
171
178
203
180
188
173
168
176
181
174
188
180
129
119
122
134
139
141
144
143
156
158
162
160
162
167
161
156
152
158
156
129
113
135
149
149
146
136
146
131
89
73
72
74
84
91
96
106
104
82
82
90
89
8
8
8
8
8
10
32
34
160
183
185
170
167
154
171
175
172
183
181
180
193
192
189
185
175
178
180
185
186
180
175
175
158
146
135
128
118
115
137
135
142
144
138
154
155
152
152
153
170
161
160
159
165
106
104
107
126
150
144
146
137
107
95
76
78
86
67
92
81
98
102
92
96
94
88
8
8
8
8
8
9
28
84
185
172
160
157
151
163
191
190
203
200
196
200
196
187
190
192
180
167
162
169
169
169
167
160
141
131
130
124
119
120
121
125
134
139
142
149
135
126
125
139
157
164
153
158
124
98
115
114
117
120
151
135
141
126
80
72
74
76
78
61
70
84
93
85
84
78
92
8
8
8
8
8
10
30
92
163
138
128
172
217
220
213
228
225
225
231
208
205
198
202
187
168
169
159
162
167
166
163
164
133
127
124
134
118
121
120
117
117
121
132
138
136
122
116
145
142
159
172
162
109
100
118
110
105
104
112
164
130
99
90
80
76
63
60
64
58
64
89
85
78
80
91
8
8
8
8
7
18
33
85
118
117
168
231
235
216
232
221
235
231
236
227
218
210
198
199
177
173
165
160
168
166
156
166
143
123
136
136
142
132
124
109
102
102
106
133
136
134
119
118
134
132
162
161
116
62
81
95
107
93
92
117
94
84
89
91
81
68
60
60
68
67
87
87
88
71
75
10
8
8
8
15
27
34
74
95
181
230
218
221
230
232
229
238
240
232
222
218
226
222
216
204
181
171
164
169
157
161
151
156
146
139
137
140
145
142
122
111
106
96
102
108
117
123
122
113
122
136
165
117
47
57
60
61
57
57
61
72
81
77
87
88
79
64
58
59
69
71
68
89
83
70
11
8
8
9
26
33
30
49
153
234
223
221
224
233
235
236
236
237
237
231
237
223
228
230
217
216
194
164
171
160
164
154
158
156
145
133
136
152
158
150
102
99
93
93
91
93
97
115
108
110
125
135
116
67
60
57
53
62
66
59
72
83
83
76
83
81
75
76
63
58
58
72
84
95
82
25
19
16
20
30
26
42
94
218
221
220
224
238
236
238
223
228
231
248
236
242
233
230
214
218
207
219
207
174
168
156
151
137
133
160
132
124
141
172
165
107
100
91
97
72
98
100
93
98
101
107
117
125
85
81
68
56
61
84
84
86
93
89
81
84
93
100
74
63
58
60
77
83
83
86
7
9
16
21
24
29
61
158
213
233
226
220
231
237
229
231
235
231
227
236
230
225
222
220
218
218
209
212
210
202
177
156
144
137
134
140
144
129
172
158
152
106
78
84
89
87
96
91
91
98
101
117
105
91
88
90
71
63
71
81
71
87
76
88
92
95
90
87
93
87
69
69
71
74
69
8
10
13
26
30
30
66
192
216
219
218
224
228
232
227
214
225
231
224
228
228
224
220
219
217
202
210
211
208
206
195
180
162
124
128
118
115
122
157
153
174
116
75
66
72
90
96
95
100
91
86
101
102
86
98
75
79
77
65
54
78
86
88
84
87
96
93
95
85
95
87
67
66
71
73
8
13
17
18
30
29
163
210
224
239
216
245
224
231
236
220
234
230
233
238
225
223
219
215
219
215
218
214
213
203
205
185
191
174
123
113
103
102
120
165
168
91
94
82
51
67
90
91
89
94
77
73
108
88
82
87
81
68
75
64
72
92
81
95
95
69
95
97
94
75
86
79
77
88
65
8
16
24
24
31
83
217
213
218
229
224
222
239
231
237
228
231
224
230
222
222
218
218
216
211
212
209
208
209
199
202
192
192
183
156
120
108
105
96
98
138
97
96
78
54
51
62
75
78
81
78
63
67
96
89
77
100
71
77
90
72
91
86
95
100
90
90
95
93
71
66
84
78
76
59
9
23
23
31
43
155
209
217
211
231
226
232
222
234
224
234
233
224
217
225
220
222
212
210
207
206
209
206
204
202
202
195
195
192
180
167
142
132
90
90
93
95
87
85
63
46
47
69
76
76
66
73
71
71
98
66
58
80
82
56
46
70
90
93
92
94
80
90
65
84
70
78
85
78
67
10
20
26
26
62
184
200
213
220
203
232
227
238
235
236
222
221
229
221
214
211
218
213
221
209
211
219
215
204
205
201
199
194
185
191
188
178
159
141
88
95
73
71
89
81
76
67
40
34
57
59
68
81
78
82
96
75
67
95
87
49
51
67
90
93
102
85
72
81
82
87
73
70
85
90
14
17
27
26
79
191
208
202
197
189
205
228
234
232
230
229
233
224
227
216
212
216
212
211
217
209
204
202
210
201
201
195
193
189
185
185
178
175
151
125
81
76
71
84
73
80
67
58
43
27
40
60
56
57
50
65
74
57
78
89
64
47
62
82
80
76
91
78
75
88
88
86
81
89
100
14
25
24
37
81
188
207
197
186
178
194
197
224
230
232
233
226
217
224
209
205
214
210
205
200
194
193
194
199
208
201
200
192
189
194
185
172
173
164
141
120
95
72
89
54
61
69
68
60
42
36
35
35
30
54
50
62
63
56
73
90
39
46
55
58
78
62
82
92
94
94
86
74
81
83
18
34
32
25
65
154
178
181
181
178
185
181
201
229
230
226
219
215
218
201
197
204
195
182
191
184
176
191
192
190
199
205
191
193
190
186
186
176
171
156
150
139
99
79
82
71
60
78
81
63
58
36
34
24
38
53
47
55
62
51
79
58
68
61
49
61
66
48
46
85
97
95
96
85
87
14
27
33
35
52
124
159
156
182
171
168
180
184
223
225
225
218
207
218
184
184
183
179
175
167
175
173
173
181
178
188
184
193
193
184
195
190
176
158
159
153
148
115
88
54
82
84
68
78
69
55
43
23
30
35
38
50
51
70
61
47
63
44
64
47
38
60
72
35
56
71
83
88
73
93
12
25
30
31
45
68
122
183
203
188
183
157
157
207
223
217
217
209
210
191
169
165
163
167
163
163
169
167
170
176
167
192
189
186
184
189
184
177
178
160
156
145
117
95
76
50
73
76
65
72
61
59
51
41
40
49
40
43
59
67
55
82
45
59
62
52
45
59
67
56
48
72
86
75
91
13
23
24
35
39
62
91
86
96
126
163
158
168
200
220
228
214
211
192
186
168
160
155
160
164
168
150
169
172
162
177
182
185
177
194
186
180
192
175
171
152
132
117
89
87
57
35
69
72
61
76
76
67
64
49
50
55
60
58
78
63
70
47
51
40
57
53
58
68
79
52
69
79
77
89
16
16
26
30
33
78
93
188
236
88
74
79
106
182
216
233
222
196
190
177
152
155
153
168
164
156
134
142
144
161
180
182
179
177
174
184
176
185
175
163
151
146
109
84
67
68
43
33
53
53
47
78
69
65
48
51
58
72
64
63
70
39
78
36
33
43
50
43
40
58
65
66
68
75
76
21
22
20
26
32
51
190
255
201
179
107
20
36
145
220
228
224
200
185
164
148
148
159
160
150
141
153
183
193
186
184
186
151
164
176
185
181
177
171
166
143
127
106
84
76
68
55
34
35
49
45
63
80
72
56
61
57
64
72
66
63
62
56
58
38
41
66
63
44
65
63
78
82
74
72
18
22
22
31
22
48
232
246
186
73
61
20
60
141
209
242
221
198
177
162
148
154
155
147
143
174
188
181
211
196
192
165
148
142
121
167
179
171
168
155
138
121
108
90
78
68
60
57
36
36
43
64
74
74
54
72
78
58
62
72
57
62
29
57
74
51
49
62
31
62
59
61
77
61
66
15
20
21
17
23
61
213
225
224
81
53
59
103
121
208
228
219
187
167
156
143
145
153
138
155
179
171
164
182
133
115
124
123
114
120
110
147
165
166
149
136
115
85
83
75
73
73
59
56
48
23
48
76
67
69
66
64
76
64
48
45
70
56
29
78
66
41
54
48
60
55
63
71
83
87
13
26
25
24
29
142
176
197
213
186
137
136
135
147
212
229
215
183
159
140
143
146
159
167
159
157
212
236
255
239
159
37
43
61
84
96
92
118
145
138
132
106
89
83
76
80
87
72
58
57
41
29
58
71
80
67
57
75
77
65
53
42
69
54
53
84
66
34
44
62
68
65
70
78
80
14
20
26
33
60
193
165
175
185
187
193
198
183
204
222
233
220
177
157
144
142
144
162
171
162
161
235
250
252
249
181
29
12
24
45
73
81
73
104
127
117
96
88
88
89
89
82
81
68
58
55
45
31
68
81
74
70
76
76
77
64
53
45
56
55
65
70
54
39
61
68
68
75
65
79
19
28
22
28
91
219
218
171
176
176
180
174
171
200
224
241
222
171
154
142
142
146
165
179
190
187
218
245
246
239
76
23
12
28
87
40
63
89
82
109
99
93
94
93
86
88
82
79
73
64
60
55
50
27
67
71
77
82
69
57
46
60
42
46
43
53
66
58
63
54
68
62
76
65
58
21
24
34
26
105
231
230
202
190
195
188
180
200
219
228
235
203
164
151
143
137
143
162
180
187
208
209
219
216
216
101
59
53
79
98
27
61
79
97
93
107
91
92
96
98
95
92
86
69
64
63
61
61
37
32
75
74
84
90
49
54
49
46
53
51
49
61
52
76
64
59
53
55
60
54
19
23
31
26
123
232
214
224
209
207
199
206
214
214
233
235
188
159
149
146
141
150
167
189
193
195
201
200
199
205
175
96
72
67
79
89
74
83
105
102
98
93
102
98
100
104
96
86
73
74
66
62
58
53
36
32
60
78
75
82
58
56
58
45
56
62
56
61
69
63
59
49
52
58
65
20
25
26
29
141
232
222
225
211
209
209
214
221
227
227
205
185
157
148
142
143
156
153
187
202
193
201
190
168
187
180
182
176
175
137
88
84
109
127
138
157
144
126
125
108
103
98
84
85
73
78
68
70
63
56
35
30
62
67
82
79
62
45
50
53
74
62
80
74
59
65
59
55
69
72
18
22
21
29
148
222
222
212
211
220
227
220
219
225
232
208
171
154
149
141
141
150
167
195
202
200
197
185
193
171
167
150
123
114
111
94
106
138
161
176
175
169
166
163
151
124
101
87
87
76
75
68
66
65
64
50
32
39
68
73
54
58
74
56
50
51
68
68
63
76
66
69
70
71
63
20
21
23
43
171
220
227
217
208
224
214
213
216
215
214
193
165
156
155
145
143
152
168
192
199
197
198
187
193
188
174
160
144
132
130
128
130
163
172
181
171
170
168
152
146
132
103
86
88
83
73
77
66
63
68
68
53
49
43
60
69
38
51
72
60
50
53
58
64
76
75
75
66
58
65
20
21
25
37
183
213
207
217
221
197
215
220
217
213
196
188
155
147
148
133
136
153
163
186
202
197
196
196
191
192
184
176
166
155
156
158
168
180
172
180
180
175
162
154
140
133
117
82
77
79
80
77
75
65
71
73
56
55
45
31
78
77
55
57
66
58
43
61
61
62
68
76
70
43
61
19
21
22
29
190
213
211
208
208
224
221
219
209
210
186
169
149
138
135
135
140
142
166
184
197
196
196
193
200
195
192
197
188
184
173
185
189
181
172
171
174
169
160
155
133
117
99
83
66
67
73
79
74
71
72
65
66
58
50
46
64
84
81
64
61
85
67
46
59
52
49
69
68
60
58
18
19
19
35
178
218
210
211
206
222
215
215
213
204
174
160
156
129
129
131
131
136
165
184
202
195
197
191
198
192
198
195
202
191
186
191
188
181
175
179
176
172
162
149
130
117
96
81
65
65
66
79
79
72
70
65
68
63
60
59
51
49
70
81
73
84
86
61
50
59
50
45
57
45
54
20
16
16
43
166
210
201
215
201
220
215
221
214
186
173
165
143
131
127
124
129
142
162
186
191
190
199
197
189
198
194
196
189
191
193
184
186
186
180
168
171
164
149
144
125
113
94
77
62
66
67
64
69
72
70
69
68
59
49
56
54
35
49
81
72
83
76
82
72
54
49
37
57
38
55
16
17
20
29
153
215
219
211
213
202
224
213
210
174
162
142
145
121
117
120
121
134
165
185
190
202
197
195
196
199
195
192
194
195
187
189
188
182
175
172
168
160
152
131
120
103
86
65
64
61
63
64
72
74
69
70
62
60
59
51
55
51
41
41
57
77
80
84
81
77
62
53
52
35
45
18
17
22
24
130
208
215
208
215
211
217
206
193
169
155
149
130
109
107
112
115
138
159
179
184
198
198
198
194
198
190
202
195
189
192
191
184
173
181
171
164
156
144
126
113
90
80
72
67
66
68
64
70
74
73
68
70
61
54
47
60
61
48
46
29
39
74
74
80
84
68
49
47
42
40
22
17
16
26
117
223
209
202
203
214
219
214
176
156
150
131
128
108
107
103
102
106
153
198
195
195
201
200
184
195
195
196
194
194
196
187
185
176
176
166
159
146
133
123
91
85
73
62
66
68
70
64
68
77
80
66
57
66
60
54
58
64
44
40
33
21
52
78
75
86
69
59
45
50
42
18
12
16
25
88
218
213
207
217
210
216
196
165
146
135
128
116
110
105
103
103
112
139
195
198
187
202
198
204
190
199
190
198
202
192
189
184
173
171
165
149
139
132
106
94
82
65
64
64
66
66
71
70
71
72
71
65
66
60
56
55
52
50
37
26
23
33
65
80
81
71
64
45
43
41
16
17
19
23
70
209
205
216
217
228
210
176
168
137
131
116
104
109
113
112
101
94
109
182
201
194
193
191
201
190
203
173
201
193
184
183
181
171
168
153
141
144
126
96
86
73
67
64
64
70
71
67
77
76
70
72
72
68
61
57
60
57
28
24
29
34
51
53
69
76
64
55
46
36
33
16
10
10
10
32
185
222
217
216
197
195
164
116
122
111
115
94
102
109
110
110
89
85
144
192
193
193
197
207
192
206
188
197
184
182
177
177
164
165
151
145
127
109
91
88
71
61
67
71
76
76
71
76
71
74
74
70
64
66
57
59
62
16
28
35
52
66
52
52
63
59
44
38
29
29
10
8
8
7
21
175
213
216
224
194
183
132
116
101
97
102
98
104
113
109
94
89
82
119
186
199
193
191
186
192
186
191
187
182
182
173
167
156
149
142
141
122
103
86
77
72
69
65
73
79
79
77
70
74
73
74
77
69
58
58
61
56
52
67
81
69
57
69
56
39
40
31
42
34
25
8
8
8
8
9
140
220
203
218
222
204
159
90
77
70
67
70
91
101
91
87
83
89
105
181
202
191
198
191
194
195
188
187
189
180
169
159
160
140
134
133
117
98
83
81
71
71
70
72
79
82
74
68
74
72
67
72
68
57
54
43
53
71
89
84
72
63
52
36
38
30
17
22
17
19
8
8
8
8
3
104
215
214
225
239
230
225
179
94
48
58
60
76
86
76
97
86
81
95
178
183
192
201
177
195
187
187
193
182
175
165
157
139
150
138
137
114
101
83
70
75
69
69
74
74
82
83
80
82
84
74
78
76
62
51
67
69
87
88
77
61
47
44
51
33
27
15
16
15
15
8
8
8
8
3
79
222
213
208
201
216
221
224
187
118
97
86
85
84
81
85
82
71
121
179
183
190
190
182
189
190
184
180
176
172
171
160
157
144
137
131
112
92
91
78
73
77
78
81
86
82
82
79
73
71
76
79
63
67
72
74
75
79
86
85
61
45
40
42
25
13
12
14
14
18
8
8
8
8
6
55
203
214
207
212
219
224
222
208
173
119
104
98
95
104
122
146
149
162
171
182
190
187
184
182
180
184
180
169
170
167
156
149
138
134
116
105
91
85
83
80
76
78
80
82
80
81
80
79
71
79
75
60
74
71
68
67
74
83
78
53
47
38
22
16
12
13
14
16
16
8
8
8
10
18
30
174
209
223
197
225
211
214
220
193
152
133
140
131
146
166
174
170
171
177
180
186
186
175
181
182
172
178
174
162
151
153
148
146
135
110
97
96
80
86
75
70
82
85
82
75
80
86
70
71
71
70
51
65
80
81
70
82
81
68
43
31
22
14
13
11
15
13
15
15
8
8
8
8
7
8
120
214
217
206
198
210
225
223
199
160
134
145
149
160
161
163
170
165
175
185
187
178
192
184
176
178
169
168
166
164
151
145
134
116
114
102
92
92
89
85
83
84
81
89
77
78
84
79
74
67
66
54
58
67
80
82
74
63
49
22
20
15
14
13
15
16
14
11
10
8
8
8
8
8
5
49
193
215
203
184
190
205
215
188
151
146
157
152
156
164
163
168
169
176
171
177
186
185
185
175
175
169
165
153
153
145
137
127
118
108
102
96
92
87
89
88
90
83
84
80
77
79
76
78
65
63
54
43
41
42
45
52
38
20
23
15
13
11
12
13
14
11
14
16
8
8
8
8
8
5
29
165
217
182
154
156
155
175
161
138
151
155
132
157
156
155
167
177
168
168
174
176
174
172
170
174
169
164
160
149
143
122
129
119
107
102
96
94
91
91
94
97
90
89
81
84
86
88
82
72
65
47
48
50
38
28
30
20
23
24
16
15
12
12
12
17
11
20
32
8
8
8
8
8
5
23
105
213
196
117
110
127
130
117
131
142
145
135
134
149
142
162
154
157
168
169
184
162
166
159
159
159
141
142
133
131
137
121
113
99
100
96
96
93
92
89
94
92
90
88
86
81
84
78
78
75
39
45
47
35
46
45
29
27
22
14
14
12
13
14
14
14
13
18
8
8
8
8
8
7
9
30
196
209
187
123
100
96
101
106
96
98
118
117
136
136
144
154
153
145
162
169
175
165
163
159
157
149
152
137
127
113
109
108
104
102
96
102
100
100
104
105
97
97
93
88
88
81
76
75
60
51
40
45
51
53
43
30
19
25
17
15
11
12
11
10
14
15
17
8
8
8
8
8
8
8
12
158
214
209
139
103
81
71
146
134
121
112
81
100
99
106
117
132
146
144
163
165
161
166
163
151
144
138
134
129
125
108
103
107
106
101
109
109
110
111
101
97
100
97
93
90
88
74
73
63
56
52
62
61
61
42
39
37
26
21
16
13
12
11
12
13
15
14
8
8
8
8
8
8
8
11
81
215
201
145
116
105
73
86
136
171
140
98
87
80
80
84
107
130
134
152
175
168
168
163
146
139
138
130
117
112
108
104
98
93
99
102
99
104
108
101
105
100
95
94
90
81
84
67
60
62
61
48
68
59
48
45
34
24
20
16
14
13
9
14
13
13
18
10
8
8
8
8
8
8
6
10
192
200
161
157
161
130
108
98
93
109
105
100
87
76
76
94
119
135
153
163
159
153
157
146
134
124
125
117
112
111
110
101
103
102
108
107
112
107
110
105
106
103
104
99
89
70
74
65
68
71
66
112
91
55
36
28
37
18
14
12
11
9
7
13
16
13
10
8
8
8
8
8
8
8
9
106
215
174
178
200
187
173
175
125
116
111
98
98
86
98
173
179
156
159
173
154
157
156
146
132
125
120
122
114
110
106
106
104
109
108
109
108
107
106
111
108
107
105
100
90
72
86
84
62
57
139
186
103
50
62
42
34
17
14
15
12
8
11
8
14
11
10
8
8
8
8
8
8
7
15
46
193
184
152
159
177
177
201
138
123
111
110
110
107
114
148
151
163
159
174
164
156
154
135
139
125
121
119
117
107
106
104
106
110
107
110
115
115
114
115
108
101
106
101
80
74
76
78
66
105
255
207
103
86
59
45
26
22
15
12
13
24
10
11
13
15
8
8
8
8
9
8
8
7
17
24
143
210
188
158
161
154
146
119
103
103
105
108
104
117
131
152
168
161
173
163
158
152
144
137
124
119
125
117
109
106
110
107
105
108
114
125
122
117
112
104
105
98
98
88
66
58
61
63
127
255
251
175
89
56
37
33
19
21
15
19
21
14
11
9
13
10
8
8
8
11
12
9
7
15
30
91
219
212
185
157
142
115
101
106
107
107
113
110
119
126
136
156
149
173
158
159
145
132
133
120
121
118
112
109
111
112
110
109
111
122
124
126
119
108
106
104
100
97
66
58
62
71
78
96
212
226
141
84
52
29
26
35
18
13
14
11
14
17
12
15
10
8
8
8
10
12
9
8
10
19
53
202
226
218
206
177
162
136
117
105
105
104
119
121
129
141
139
135
156
161
152
130
127
127
131
121
119
132
123
119
116
112
120
127
132
126
129
123
115
114
106
103
88
55
58
76
73
82
84
78
91
93
55
40
29
34
42
16
19
9
12
7
13
11
14
8
8
8
8
13
15
9
8
7
12
19
160
236
220
221
213
206
187
166
147
135
127
126
133
137
137
144
152
157
156
140
135
137
132
130
127
118
125
121
122
124
122
127
132
125
130
128
128
135
116
90
71
61
70
80
82
74
79
82
73
58
98
93
77
68
74
71
21
17
17
15
12
15
13
12
8
8
8
8
10
13
9
8
8
8
8
119
222
224
218
213
203
196
202
168
158
142
139
133
129
132
142
146
161
148
148
136
133
129
125
131
129
120
121
127
120
128
130
133
126
127
126
116
110
79
68
64
83
79
79
82
82
80
83
89
101
164
143
138
128
97
49
25
22
18
14
11
37
39
74
8
8
8
8
7
12
17
9
8
8
3
58
224
222
218
217
209
206
182
182
164
157
160
132
128
136
139
139
143
135
133
137
127
127
118
135
127
133
118
128
126
132
127
130
126
127
116
99
82
77
47
77
79
79
83
83
76
75
74
63
115
171
105
114
94
56
30
21
36
35
108
138
119
129
127
8
8
8
8
8
8
12
9
8
8
8
10
125
227
210
206
212
202
195
178
175
158
151
145
141
124
133
133
138
132
133
126
128
127
127
123
125
125
124
123
131
132
128
122
114
106
95
85
83
79
66
75
84
78
83
87
79
77
67
70
69
69
74
66
43
45
75
114
152
162
157
148
138
147
138
8
8
8
8
8
8
11
11
9
8
9
16
39
185
218
195
205
198
189
176
172
163
150
138
139
122
121
124
134
125
126
126
127
127
124
135
125
125
137
136
132
129
124
110
101
93
89
92
92
84
77
80
81
81
84
87
76
76
64
78
64
62
68
68
88
121
163
178
180
165
180
171
166
174
166
8
8
8
8
8
8
8
11
9
8
10
17
20
69
179
199
195
197
188
177
165
161
148
134
120
120
119
115
128
126
125
132
127
120
108
123
133
138
138
134
121
98
106
98
96
96
94
92
94
90
86
87
83
88
84
88
78
76
75
61
81
103
156
157
167
177
167
157
177
188
189
175
185
175
180
8
8
8
8
8
8
8
10
9
8
9
11
14
8
33
123
167
193
175
175
167
162
149
138
116
120
115
111
115
117
116
126
118
112
119
116
108
112
102
93
92
87
90
103
96
95
99
97
94
99
102
99
99
93
87
75
92
96
120
131
170
192
230
235
221
225
233
240
245
235
230
220
170
169
168
8
8
8
8
8
8
8
11
10
8
9
11
14
10
10
13
38
95
159
167
166
145
138
124
118
119
113
118
108
102
78
84
94
92
94
90
81
88
90
95
93
98
104
106
107
101
102
103
104
104
100
93
103
109
115
151
170
209
225
231
245
247
255
252
241
248
244
247
239
246
230
208
180
184
180
8
8
8
8
8
8
8
11
10
8
8
12
10
12
10
14
12
15
41
55
93
122
108
98
92
86
74
65
41
29
18
19
47
111
159
143
122
115
116
113
116
107
105
116
116
113
116
109
111
101
139
132
208
240
244
251
251
255
253
252
253
242
254
253
250
227
227
230
234
220
203
164
108
89
72
8
8
8
8
10
9
8
9
11
8
8
12
11
11
13
21
8
14
12
9
11
20
23
31
39
22
18
2
4
8
10
10
8
90
172
171
166
145
138
130
127
117
124
121
115
122
124
148
173
219
255
255
253
255
245
253
255
251
254
243
249
250
249
249
229
214
219
209
161
151
95
53
41
43
43
8
8
8
8
9
8
8
9
10
8
8
14
9
10
9
13
11
9
10
8
10
10
9
9
9
6
10
11
11
12
12
13
8
34
136
195
188
173
158
141
138
136
130
132
125
151
225
255
255
255
252
252
247
254
254
255
255
255
255
252
251
254
247
223
213
196
164
116
68
48
39
38
45
44
44
8
8
8
8
9
10
8
8
10
8
8
12
10
9
11
10
9
9
9
10
9
12
12
11
6
11
10
12
11
11
11
11
11
2
87
187
186
190
189
173
169
149
142
164
241
247
255
255
255
255
255
253
254
254
255
255
255
254
255
254
253
232
187
150
113
87
64
48
46
38
36
43
39
43
34
